<svg version="1.1" xmlns="http://www.w3.org/2000/svg"  viewBox="0 0 1024 1024" width="1024" height="1024"><path d="M0 0 C337.92 0 675.84 0 1024 0 C1024 337.92 1024 675.84 1024 1024 C686.08 1024 348.16 1024 0 1024 C0 686.08 0 348.16 0 0 Z " transform="translate(0,0)" style="fill: #000000;"></path><path d="M0 0 C0.89058105 0.26893066 1.78116211 0.53786133 2.69873047 0.81494141 C58.76437253 17.96504894 111.45184581 49.10055678 154.0859375 89.2734375 C156.70018403 91.71947513 159.36591725 94.08334046 162.0625 96.4375 C167.59640903 101.39831812 172.53726405 106.85149901 177.51074219 112.36230469 C178.9323314 113.92558672 180.37155895 115.46971746 181.8203125 117.0078125 C188.68974188 124.32424198 194.91992658 132.02016374 201 140 C201.49145508 140.6398584 201.98291016 141.2797168 202.48925781 141.93896484 C209.72643737 151.37056895 216.6123339 160.97144477 223 171 C223.36657715 171.57476074 223.7331543 172.14952148 224.11083984 172.74169922 C230.95204646 183.5728424 236.80034731 194.92827013 242.62792969 206.32763672 C243.81232051 208.63445913 245.01415197 210.93049507 246.2265625 213.22265625 C266.84402375 252.62346386 278.15980657 298.00938127 283 342 C283.10441406 342.94617188 283.20882812 343.89234375 283.31640625 344.8671875 C289.37871416 402.72769589 282.26889501 460.89310112 264 516 C263.69368652 516.92699707 263.38737305 517.85399414 263.07177734 518.80908203 C251.04773383 554.66034955 233.46442804 588.60025463 211 619 C210.51740723 619.65532715 210.03481445 620.3106543 209.53759766 620.98583984 C200.55882707 633.15295483 191.24034777 644.82053543 180.91015625 655.87109375 C178.37519703 658.58435033 175.89984391 661.34550267 173.4375 664.125 C166.11847303 672.2793507 158.34565953 679.90256085 150 687 C148.56333984 688.27037109 148.56333984 688.27037109 147.09765625 689.56640625 C90.81765142 739.12224459 21.23777789 771.67952469 -52.5625 784.3125 C-53.41529541 784.45977539 -54.26809082 784.60705078 -55.14672852 784.75878906 C-73.85128579 787.75039725 -92.5262201 788.37434534 -111.4375 788.3125 C-113.22056046 788.30926727 -113.22056046 788.30926727 -115.03964233 788.30596924 C-133.20212594 788.253209 -151.02294827 787.79909132 -169 785 C-169.64400757 784.90054077 -170.28801514 784.80108154 -170.95153809 784.6986084 C-211.40439423 778.40400135 -249.98813946 767.04765743 -287.04150391 749.56494141 C-288.02425293 749.10651855 -289.00700195 748.6480957 -290.01953125 748.17578125 C-290.90358643 747.75852783 -291.7876416 747.34127441 -292.69848633 746.91137695 C-295.05231275 745.81591271 -295.05231275 745.81591271 -298 746 C-298.83917969 745.13955078 -298.83917969 745.13955078 -299.6953125 744.26171875 C-302.73641306 741.27731668 -306.08876538 739.7024498 -309.875 737.8125 C-317.93491522 733.67456225 -325.47319176 729.04035942 -333 724 C-334.1313594 723.24586714 -335.26286479 722.49195324 -336.39453125 721.73828125 C-337.68423828 720.87783203 -337.68423828 720.87783203 -339 720 C-339.66 720.66 -340.32 721.32 -341 722 C-341.29390625 720.91138672 -341.29390625 720.91138672 -341.59375 719.80078125 C-343.44554771 716.11261747 -346.1501508 714.3988326 -349.5 712.1875 C-350.7788612 711.30949784 -352.05619781 710.42927105 -353.33203125 709.546875 C-353.95932129 709.11568359 -354.58661133 708.68449219 -355.23291016 708.24023438 C-359.32034045 705.37146594 -363.14067012 702.16389869 -367 699 C-367.8353125 698.33871094 -368.670625 697.67742188 -369.53125 696.99609375 C-375.87149281 691.93322339 -381.81476362 686.54430372 -387.69799805 680.96044922 C-390.48399728 678.32045263 -393.27200579 675.7363737 -396.24609375 673.30859375 C-398.52399146 671.39903695 -400.37058494 669.59252722 -402.25 667.3125 C-404.98158473 664.09957875 -407.8558389 661.13188311 -410.875 658.1875 C-416.01288791 653.11207881 -420.49982821 647.63814627 -425 642 C-429.04670839 637.03015367 -429.04670839 637.03015367 -434 633 C-434 632.34 -434 631.68 -434 631 C-435.10921474 629.25372439 -435.10921474 629.25372439 -436.58984375 627.375 C-437.12673828 626.66859375 -437.66363281 625.9621875 -438.21679688 625.234375 C-438.78462891 624.49703125 -439.35246094 623.7596875 -439.9375 623 C-441.05213174 621.54269861 -442.1654752 620.0844107 -443.27734375 618.625 C-444.02359009 617.65433594 -444.02359009 617.65433594 -444.78491211 616.6640625 C-446 615 -446 615 -447 613 C-447.99 612.34 -448.98 611.68 -450 611 C-450 610.67 -450 610.34 -450 610 C-450.99 609.67 -451.98 609.34 -453 609 C-452.67 608.01 -452.34 607.02 -452 606 C-452.97877437 603.79866417 -452.97877437 603.79866417 -454.53515625 601.5 C-455.09501221 600.61739502 -455.65486816 599.73479004 -456.23168945 598.82543945 C-456.83585693 597.89304443 -457.44002441 596.96064941 -458.0625 596 C-459.26764605 594.09893595 -460.4707936 592.19660342 -461.671875 590.29296875 C-462.25001953 589.37950684 -462.82816406 588.46604492 -463.42382812 587.52490234 C-471 575.38847584 -471 575.38847584 -471 572 C-471.66 572 -472.32 572 -473 572 C-474.625 570.6875 -474.625 570.6875 -476 569 C-476 568.01 -476 567.02 -476 566 C-476.6024238 564.36737786 -477.27120454 562.75883004 -477.9765625 561.16796875 C-478.60703491 559.73445068 -478.60703491 559.73445068 -479.25024414 558.27197266 C-479.70391357 557.25409668 -480.15758301 556.2362207 -480.625 555.1875 C-481.55339405 553.07422254 -482.48177951 550.96094131 -483.41015625 548.84765625 C-484.82644279 545.64339035 -486.24881443 542.44211269 -487.68359375 539.24609375 C-496.42016109 519.47125718 -502.84652947 498.97203837 -508 478 C-508.28391602 476.85208984 -508.56783203 475.70417969 -508.86035156 474.52148438 C-509.27365723 472.80155273 -509.27365723 472.80155273 -509.6953125 471.046875 C-509.94555176 470.00885742 -510.19579102 468.97083984 -510.45361328 467.90136719 C-510.9654475 465.18347717 -511.10591289 462.75627191 -511 460 C-511.66 459.67 -512.32 459.34 -513 459 C-513.90666667 454.37264197 -514.23335692 449.64393848 -514.69384766 444.95263672 C-515.02205481 441.78729599 -515.40686014 438.63143595 -515.79296875 435.47265625 C-519.76264939 401.04014286 -520.04476714 365.32410347 -515 331 C-514.82839355 329.81180664 -514.65678711 328.62361328 -514.47998047 327.39941406 C-508.73380804 288.77322195 -497.78187648 251.27240495 -481 216 C-480.6380957 215.23461914 -480.27619141 214.46923828 -479.90332031 213.68066406 C-463.94541062 180.19195981 -443.300892 148.19589808 -418 121 C-416.89085406 119.7335101 -415.78657346 118.46274073 -414.6875 117.1875 C-405.42501247 106.56795034 -395.88483229 96.09926994 -385.1875 86.90625 C-382.64488601 84.69054352 -380.16889802 82.40901408 -377.6875 80.125 C-355.58686171 60.04172243 -330.96813448 43.60347376 -305 29 C-304.36416992 28.6380957 -303.72833984 28.27619141 -303.07324219 27.90332031 C-266.31962557 7.06364079 -224.4758454 -5.88985507 -183 -13 C-182.02691895 -13.16725586 -181.05383789 -13.33451172 -180.05126953 -13.50683594 C-120.17447034 -23.44888615 -57.82421499 -17.62008527 0 0 Z " transform="translate(629,124)" style="fill: #1FBFDA;"></path><path d="M0 0 C34.13122276 -0.7781413 67.83303324 2.50578846 100.93457031 11.078125 C101.64202393 11.25480713 102.34947754 11.43148926 103.07836914 11.61352539 C127.28446261 17.67221221 150.5589184 27.13840052 172.93457031 38.078125 C173.83369141 38.51737305 174.7328125 38.95662109 175.65917969 39.40917969 C224.4368978 63.51216201 224.4368978 63.51216201 238.93457031 81.078125 C238.93457031 82.068125 238.93457031 83.058125 238.93457031 84.078125 C239.53366211 83.86607422 240.13275391 83.65402344 240.75 83.43554688 C241.4709082 83.31759766 242.19181641 83.19964844 242.93457031 83.078125 C245.21743593 84.8416085 247.15545983 86.55578214 249.18457031 88.578125 C250.35566484 89.70523857 251.52753589 90.8315459 252.70019531 91.95703125 C253.54227539 92.77518311 253.54227539 92.77518311 254.40136719 93.60986328 C256.18665691 95.31953405 258.04184815 96.9262237 259.93457031 98.515625 C268.57011188 105.99609413 276.58765037 114.33949775 283.93457031 123.078125 C284.70542969 123.95984375 285.47628906 124.8415625 286.27050781 125.75 C309.57231298 152.54313835 328.11151133 182.56721044 342.88720703 214.80273438 C343.84659603 216.88700139 344.82464259 218.96082889 345.81347656 221.03125 C348.32604392 226.33488615 350.51118233 231.38457308 351.93457031 237.078125 C352.26457031 237.408125 352.59457031 237.738125 352.93457031 238.078125 C354.40471226 241.74310888 355.682615 245.47997005 356.99707031 249.203125 C357.37412109 250.23695313 357.75117187 251.27078125 358.13964844 252.3359375 C360.06345537 257.79078247 361.45161454 262.2839468 360.93457031 268.078125 C361.59457031 268.408125 362.25457031 268.738125 362.93457031 269.078125 C363.60473633 271.04003906 363.60473633 271.04003906 364.18847656 273.59375 C364.40310547 274.51542969 364.61773438 275.43710937 364.83886719 276.38671875 C365.05607422 277.35738281 365.27328125 278.32804687 365.49707031 279.328125 C365.71814453 280.28332031 365.93921875 281.23851562 366.16699219 282.22265625 C368.06973172 290.48893856 369.57614476 298.76858925 370.93457031 307.140625 C371.11246094 308.20990234 371.29035156 309.27917969 371.47363281 310.38085938 C373.08555743 320.33509536 374.10183307 330.17758982 373.93457031 340.265625 C373.89776326 342.53616002 373.88658455 344.80779873 373.93457031 347.078125 C374.26457031 347.408125 374.59457031 347.738125 374.93457031 348.078125 C377.17528331 376.17870295 373.75755757 406.60704438 367.93457031 434.078125 C367.72461426 435.09455078 367.5146582 436.11097656 367.29833984 437.15820312 C356.61445293 488.27326993 335.83182803 537.55543746 303.93457031 579.078125 C303.45149414 579.71524414 302.96841797 580.35236328 302.47070312 581.00878906 C297.08879737 588.09795696 291.491409 594.87061868 285.41894531 601.3828125 C283.44597155 603.52330291 281.5345564 605.69108197 279.63378906 607.89453125 C275.92240127 612.15097599 272.00068847 616.16017146 267.99707031 620.140625 C267.33255859 620.80900391 266.66804687 621.47738281 265.98339844 622.16601562 C261.46564478 626.67500546 256.79245927 630.93917261 251.93457031 635.078125 C251.29156982 635.62782959 250.64856934 636.17753418 249.98608398 636.74389648 C224.77235541 658.14547817 196.77872392 675.85446804 166.93457031 690.078125 C166.25765137 690.40135742 165.58073242 690.72458984 164.88330078 691.05761719 C137.43172713 704.02534058 99.08209188 720.63120054 67.93457031 718.078125 C62.75133722 713.82310269 60.25615084 707.61902139 57.24707031 701.765625 C56.93776581 701.16610016 56.6284613 700.56657532 56.30978394 699.94888306 C50.32467651 688.30330973 45.26736745 676.43567363 40.93457031 664.078125 C40.61407715 663.17288086 40.29358398 662.26763672 39.96337891 661.33496094 C36.30313474 650.85411856 33.36019279 640.31501089 31.05957031 629.453125 C30.8562207 628.49414307 30.65287109 627.53516113 30.44335938 626.54711914 C25.60321341 602.31912682 25.98721568 575.31843374 39.93457031 554.078125 C48.67333344 542.91312051 62.20160002 537.76762748 75.89233398 536.09399414 C86.22084062 534.98660577 96.34825929 534.75933684 106.71972656 535.44140625 C134.84179366 537.28116765 156.20682202 535.98699025 178.30957031 517.078125 C180.54373113 515.10541507 182.7433708 513.09830406 184.93457031 511.078125 C185.7325 510.36269531 186.53042969 509.64726563 187.35253906 508.91015625 C199.49925391 497.47144664 208.3081277 483.37015444 216.27832031 468.85546875 C220.07277001 461.98467943 223.54268062 456.07773961 229.37207031 450.703125 C237.46652516 442.90027669 242.70197685 434.43460411 243.93457031 423.078125 C243.64993375 406.30354341 235.04327714 394.71581787 223.93457031 383.078125 C222.94457031 382.418125 221.95457031 381.758125 220.93457031 381.078125 C220.93457031 380.418125 220.93457031 379.758125 220.93457031 379.078125 C220.33781494 378.80444092 219.74105957 378.53075684 219.1262207 378.2487793 C199.07046608 367.53614218 184.60669051 338.88193133 178.26660156 318.10546875 C176.32483997 311.18750305 175.03985764 304.10026933 173.84570312 297.01953125 C169.55274778 272.9230875 152.00029674 254.08541794 133.88378906 238.76171875 C132.51949978 237.58334464 131.19092879 236.36292102 129.89160156 235.11328125 C111.28165177 217.40019651 87.88917178 206.03985226 64.17089844 196.86865234 C48.04936853 190.57761564 48.04936853 190.57761564 44.43457031 184.578125 C40.21022704 174.60488083 43.46184194 161.95619952 45.18457031 151.703125 C45.41364846 150.29171597 45.64190882 148.880174 45.86938477 147.46850586 C47.2137865 139.17965837 48.65571242 130.90870381 50.12207031 122.640625 C52.36038007 109.92406183 54.07656269 97.44398187 54.30957031 84.515625 C54.33567383 83.69425049 54.36177734 82.87287598 54.38867188 82.02661133 C54.40761704 75.40324549 52.63243197 70.17566986 48.24707031 65.140625 C41.4254377 62.00636137 33.89526151 62.7813991 26.93457031 65.078125 C16.88511043 69.31237075 8.42282323 75.94039952 -0.22167969 82.4609375 C-3.98452105 85.2950712 -7.81045031 88.01027293 -11.69189453 90.67871094 C-20.0456027 96.4296887 -27.69462853 102.70544234 -35.24462891 109.46777344 C-37.01787992 111.03607106 -38.81693798 112.56614085 -40.63183594 114.0859375 C-48.28690433 120.52150434 -55.4898004 127.32147345 -62.56542969 134.390625 C-63.40227295 135.2266626 -64.23911621 136.0627002 -65.10131836 136.92407227 C-69.38987498 141.25136146 -73.5314412 145.65383363 -77.50585938 150.27124023 C-79.76184722 152.88497944 -82.09937633 155.41522631 -84.44042969 157.953125 C-87.79161755 161.58743933 -91.10517551 165.2476603 -94.37792969 168.953125 C-95.93196932 170.66915817 -97.49533142 172.37677246 -99.06542969 174.078125 C-99.54786133 174.60132324 -100.03029297 175.12452148 -100.52734375 175.66357422 C-113.14443734 189.19862973 -127.72393393 199.10520716 -143.36743164 208.83813477 C-153.19818919 214.97840778 -162.17735273 221.97605128 -170.87939453 229.62524414 C-174.85363999 233.078125 -174.85363999 233.078125 -177.06542969 233.078125 C-177.06542969 233.738125 -177.06542969 234.398125 -177.06542969 235.078125 C-178.42871094 236.41796875 -178.42871094 236.41796875 -180.37792969 238.015625 C-189.60397926 245.88873798 -197.54778582 254.5821538 -205.06542969 264.078125 C-206.02193348 265.2462921 -206.98036877 266.41287956 -207.94042969 267.578125 C-262.52426956 334.13949987 -291.18726282 428.46294792 -310.06542969 511.078125 C-310.39542969 510.418125 -310.72542969 509.758125 -311.06542969 509.078125 C-311.06542969 510.068125 -311.06542969 511.058125 -311.06542969 512.078125 C-311.37167309 513.41793986 -311.69994524 514.75324387 -312.06542969 516.078125 C-349.59522784 432.23577226 -359.27216042 339.34582102 -329.06542969 248.078125 C-328.7011084 246.99337891 -328.33678711 245.90863281 -327.96142578 244.79101562 C-312.89319713 200.6566085 -289.99670535 158.33053465 -258.06542969 124.078125 C-256.83025843 122.68760231 -255.60079043 121.29198612 -254.37792969 119.890625 C-253.82363281 119.25769531 -253.26933594 118.62476563 -252.69824219 117.97265625 C-251.57500166 116.66937478 -250.46634553 115.35342643 -249.37011719 114.02734375 C-248.56960937 113.06248047 -248.56960937 113.06248047 -247.75292969 112.078125 C-247.04716797 111.211875 -247.04716797 111.211875 -246.32714844 110.328125 C-245.06542969 109.078125 -245.06542969 109.078125 -243.06542969 109.078125 C-242.85917969 108.53542969 -242.65292969 107.99273437 -242.44042969 107.43359375 C-240.53229167 104.16482322 -237.86006196 101.88435205 -235.06542969 99.390625 C-234.47729492 98.85880615 -233.88916016 98.3269873 -233.28320312 97.77905273 C-232.09347533 96.70399555 -230.90176488 95.63112813 -229.70800781 94.56054688 C-228.31801144 93.30607928 -226.94728803 92.03030672 -225.58105469 90.75 C-218.53463263 84.18953809 -210.8949001 78.43924516 -203.1953125 72.67724609 C-201.23361446 71.20439853 -199.28497569 69.71599879 -197.33886719 68.22265625 C-180.51226224 55.43498601 -161.91300737 45.53155388 -143.06542969 36.078125 C-142.30665527 35.69672363 -141.54788086 35.31532227 -140.76611328 34.92236328 C-97.04479374 13.14703789 -48.78668408 1.24336882 0 0 Z " transform="translate(499.0654296875,146.921875)" style="fill: #000000;"></path><path d="M0 0 C14.32697797 -0.70589125 29.48257227 1.06836702 43 6 C43.99 6.33 44.98 6.66 46 7 C58.43932911 15.67305036 63.1714984 29.4760311 65.75 43.8125 C66.59731749 48.56698157 67.1520571 53.15698143 67 58 C61.58715063 57.45701825 57.57992247 55.54604338 52.875 53 C52.12581299 52.59700684 51.37662598 52.19401367 50.60473633 51.77880859 C39.08028413 45.4348697 29.46521744 37.04254873 20 28 C19.09894531 27.15179688 18.19789063 26.30359375 17.26953125 25.4296875 C11.720954 20.07417724 7.12747515 14.51418492 3 8 C2.16275391 6.71029297 2.16275391 6.71029297 1.30859375 5.39453125 C0 3 0 3 0 0 Z " transform="translate(561,464)" style="fill: #000303;"></path><path d="M0 0 C1.08845215 0.24524414 2.1769043 0.49048828 3.29833984 0.74316406 C8.81218859 2.03575625 13.80105443 3.56052785 18.9375 5.9375 C21.71638613 6.62890522 21.71638613 6.62890522 23.9375 6.9375 C23.9375 7.9275 23.9375 8.9175 23.9375 9.9375 C20.18029056 11.18990315 19.52699199 10.3732968 15.9375 8.9375 C14.56772613 8.71501227 13.19161363 8.52935951 11.8125 8.375 C7.9375 7.9375 7.9375 7.9375 4.9375 6.9375 C3.31637625 6.58579858 1.69081296 6.25425389 0.0625 5.9375 C-0.78054688 5.7725 -1.62359375 5.6075 -2.4921875 5.4375 C-3.34039063 5.2725 -4.18859375 5.1075 -5.0625 4.9375 C-5.87460937 4.7725 -6.68671875 4.6075 -7.5234375 4.4375 C-11.24865294 3.70391911 -14.99214929 3.07788087 -18.734375 2.4375 C-21.0625 1.9375 -21.0625 1.9375 -22.0625 0.9375 C-23.84645675 0.7239856 -25.63757357 0.56953793 -27.4296875 0.44140625 C-31.46172291 0.13760647 -35.4848214 -0.19122646 -39.5078125 -0.59765625 C-62.5508512 -2.79861263 -86.19722908 -3.45848912 -109.19921875 -0.5 C-113.0625 -0.0625 -113.0625 -0.0625 -116.83203125 -0.125 C-120.15813056 -0.06064983 -121.20947353 0.47342046 -124.0625 1.9375 C-125.53595555 2.35448406 -127.02366008 2.72318941 -128.51953125 3.05078125 C-129.37740234 3.24414062 -130.23527344 3.4375 -131.11914062 3.63671875 C-132.48329102 3.94029297 -132.48329102 3.94029297 -133.875 4.25 C-146.5066196 7.16298846 -158.46931079 11.13883682 -170.453125 16.1171875 C-173.0625 16.9375 -173.0625 16.9375 -176.0625 15.9375 C-176.3925 14.9475 -176.7225 13.9575 -177.0625 12.9375 C-161.57968822 4.93396976 -144.92994077 0.10427872 -128.0625 -4.0625 C-127.03479492 -4.31773437 -127.03479492 -4.31773437 -125.98632812 -4.578125 C-85.03624369 -14.46409752 -40.53566972 -9.1828378 0 0 Z " transform="translate(602.0625,569.0625)" style="fill: #000D0D;"></path><path d="M0 0 C0 0.99 0 1.98 0 3 C-0.66 3 -1.32 3 -2 3 C-2 3.66 -2 4.32 -2 5 C-7.57229777 5.94376177 -13.11902616 6.27794923 -18.75878906 6.59521484 C-68.02747648 9.4096649 -118.75468383 18.19375646 -158.26464844 49.8918457 C-160 51 -160 51 -163 51 C-162.32560287 45.79116955 -160.47948414 44.10280977 -156.53515625 40.875 C-151.57591133 37.20714551 -146.35086769 34.05648253 -141 31 C-140.32598145 30.6090918 -139.65196289 30.21818359 -138.95751953 29.81542969 C-97.63933409 6.0892744 -47.09086911 -1.09513649 0 0 Z " transform="translate(618,593)" style="fill: #000F0F;"></path><path d="M0 0 C9.30606525 0.75048913 17.52149633 3.12937876 26 7 C25.67 7.99 25.34 8.98 25 10 C18.125 9.125 18.125 9.125 17 8 C15.0048273 7.74255836 13.00887323 7.48800166 11.0078125 7.28125 C9 7 9 7 6 6 C3.66816393 5.32811503 1.33498858 4.66084583 -1 4 C-0.67 2.68 -0.34 1.36 0 0 Z " transform="translate(601,570)" style="fill: #002526;"></path><path d="M0 0 C2.49369975 2.25360908 3.9001459 4.44700498 5.375 7.45703125 C5.80296875 8.32263672 6.2309375 9.18824219 6.671875 10.08007812 C7.11015625 10.98177734 7.5484375 11.88347656 8 12.8125 C8.65742187 14.14764648 8.65742187 14.14764648 9.328125 15.50976562 C10.17633069 17.23300279 11.02026208 18.95835211 11.859375 20.68603516 C12.82616321 22.64734052 13.84510174 24.58280513 14.875 26.51171875 C15.24625 27.33285156 15.6175 28.15398437 16 29 C15.67 29.66 15.34 30.32 15 31 C12.51057718 28.74659266 11.08304876 26.54077728 9.58984375 23.54296875 C9.15736328 22.67736328 8.72488281 21.81175781 8.27929688 20.91992188 C7.83650391 20.01822266 7.39371094 19.11652344 6.9375 18.1875 C6.49083984 17.29740234 6.04417969 16.40730469 5.58398438 15.49023438 C0 4.23045123 0 4.23045123 0 0 Z " transform="translate(861,312)" style="fill: #37C3D7;"></path><path d="M0 0 C-4.71859941 2.573533 -9.72948146 3.46240534 -14.9375 4.625 C-15.92685547 4.85445313 -16.91621094 5.08390625 -17.93554688 5.3203125 C-18.89396484 5.536875 -19.85238281 5.7534375 -20.83984375 5.9765625 C-21.70988037 6.17330566 -22.57991699 6.37004883 -23.47631836 6.57275391 C-26.03409655 7.00577237 -28.41113001 7.07604933 -31 7 C-28 5 -28 5 -25 5 C-25 4.34 -25 3.68 -25 3 C-16.51168642 0.43056454 -8.85406634 -0.38558031 0 0 Z " transform="translate(438,115)" style="fill: #2ABED4;"></path><path d="M0 0 C7.56799262 0.80084578 11.77736602 7.56568659 16.625 12.875 C17.305625 13.926875 17.305625 13.926875 18 15 C17.67 15.99 17.34 16.98 17 18 C14.16266225 15.19151503 11.33081251 12.37756077 8.5 9.5625 C7.28376953 8.35883789 7.28376953 8.35883789 6.04296875 7.13085938 C5.27597656 6.36708984 4.50898437 5.60332031 3.71875 4.81640625 C3.00654297 4.10943604 2.29433594 3.40246582 1.56054688 2.67407227 C0 1 0 1 0 0 Z " transform="translate(785,218)" style="fill: #2ABED4;"></path><path d="M0 0 C0.33 0 0.66 0 1 0 C1.50508972 3.89519106 2.00317733 7.79124657 2.5 11.6875 C2.64308594 12.79029297 2.78617188 13.89308594 2.93359375 15.02929688 C3.06894531 16.09599609 3.20429688 17.16269531 3.34375 18.26171875 C3.46943359 19.24100342 3.59511719 20.22028809 3.72460938 21.22924805 C3.98432795 23.84232089 4.05025329 26.37635968 4 29 C3.67 28.34 3.34 27.68 3 27 C2.34 27 1.68 27 1 27 C-1.35901442 17.79789415 -0.86711984 9.33911507 0 0 Z " transform="translate(153,541)" style="fill: #35C4D7;"></path><path d="M0 0 C2.5654594 2.5654594 2.54046087 4.47686668 3 8 C3.99 8.33 4.98 8.66 6 9 C8.46932542 13.70614942 10.11057415 18.36903127 9.75 23.6875 C9.5025 24.450625 9.255 25.21375 9 26 C6.86414206 23.86414206 6.46163542 22.79494635 5.59765625 19.97265625 C5.34693359 19.18052734 5.09621094 18.38839844 4.83789062 17.57226562 C4.32240502 15.90375429 3.80936924 14.23448404 3.29882812 12.56445312 C3.04681641 11.77103516 2.79480469 10.97761719 2.53515625 10.16015625 C2.312229 9.43449463 2.08930176 8.70883301 1.85961914 7.96118164 C0.90488644 5.78300277 -0.22967143 4.56346702 -2 3 C-1 1 -1 1 0 0 Z " transform="translate(851,382)" style="fill: #3BC9DD;"></path><path d="M0 0 C3.56101438 4.26208909 5.6687184 9.26730913 8.0390625 14.24414062 C8.37679687 14.93830078 8.71453125 15.63246094 9.0625 16.34765625 C9.36285156 16.97679932 9.66320312 17.60594238 9.97265625 18.25415039 C11.09312661 20.1582577 12.43061743 21.45832033 14 23 C14.94193717 25.63440181 15.41457053 28.2529848 16 31 C12.9083091 28.47043472 12.09068668 25.77545388 11 22 C10.34 22 9.68 22 9 22 C7.375 20.6875 7.375 20.6875 6 19 C6 18.01 6 17.02 6 16 C5.05182157 13.81015934 4.04392598 11.64584785 3 9.5 C0 3.33333333 0 3.33333333 0 0 Z " transform="translate(147,674)" style="fill: #49C5DE;"></path><path d="M0 0 C1.28496967 3.854909 0.3320008 5.20649772 -1 9 C-1.66982183 12.22519213 -2.28178629 15.45375326 -2.85546875 18.69726562 C-3.48525004 22.05948508 -4.07130651 24.10695977 -6 27 C-6.66 27.33 -7.32 27.66 -8 28 C-7.37869771 21.69071903 -5.50010374 16.03792431 -3.4375 10.0625 C-3.10814453 9.09248047 -2.77878906 8.12246094 -2.43945312 7.12304688 C-1.6317552 4.74677616 -0.81849052 2.37257031 0 0 Z " transform="translate(134,374)" style="fill: #34C3D7;"></path><path d="M0 0 C1.32 0.66 2.64 1.32 4 2 C4 2.99 4 3.98 4 5 C2.57421875 6.38671875 2.57421875 6.38671875 0.6875 7.6875 C-0.23482422 8.34298828 -0.23482422 8.34298828 -1.17578125 9.01171875 C-3 10 -3 10 -6 10 C-5.58578031 5.16743695 -3.53586014 3.17320782 0 0 Z " transform="translate(461,634)" style="fill: #000404;"></path><path d="M0 0 C7.78121942 2.02189166 15.39772708 4.38630407 23 7 C23 7.33 23 7.66 23 8 C15.18643935 8.78135607 8.00539169 6.37437456 1 3 C0.67 2.01 0.34 1.02 0 0 Z " transform="translate(378,886)" style="fill: #30BED5;"></path><path d="M0 0 C2.72426311 2.35277269 3.8141763 4.62496331 5 8 C12.3905476 8.14715692 19.64424835 7.70776992 27 7 C23.26907561 9.27731748 19.31781724 9.75779593 15.0625 10.3125 C14.35931641 10.42400391 13.65613281 10.53550781 12.93164062 10.65039062 C9.50648968 11.10301132 7.30745428 11.13558025 4.12109375 9.73046875 C2 8 2 8 0 5 C-0.125 2.3125 -0.125 2.3125 0 0 Z " transform="translate(560,856)" style="fill: #4BCEE2;"></path><path d="M0 0 C0.33 0 0.66 0 1 0 C1.02925502 3.68748309 1.04688418 7.37493592 1.0625 11.0625 C1.07087891 12.10083984 1.07925781 13.13917969 1.08789062 14.20898438 C1.10496442 19.58723069 0.95415152 24.70333211 0 30 C-0.33 30 -0.66 30 -1 30 C-2.20268651 19.59838697 -1.61642821 10.28636136 0 0 Z " transform="translate(910,540)" style="fill: #2EBFD4;"></path><path d="M0 0 C5.02009643 4.24334799 6.72001806 11.67898341 7.25390625 18.01171875 C7.25056237 20.3557769 7.18606238 22.66388339 7 25 C5.0593504 21.51722705 4.05552373 17.9595198 3 14.125 C1.77782742 9.70417262 0.48635983 5.33963986 -1 1 C-0.67 0.67 -0.34 0.34 0 0 Z " transform="translate(620,483)" style="fill: #3DCADE;"></path><path d="M0 0 C4.70468557 0.51308031 7.45854034 2.48219646 11.1875 5.3125 C12.75564453 6.48232422 12.75564453 6.48232422 14.35546875 7.67578125 C16.7424789 9.77367053 17.90825495 11.07305162 19 14 C15.02682945 12.62111791 12.18393796 10.78436958 8.9375 8.125 C8.10089844 7.44695312 7.26429688 6.76890625 6.40234375 6.0703125 C4.15779113 4.1359826 2.06315912 2.12510154 0 0 Z " transform="translate(740,181)" style="fill: #36C3D7;"></path><path d="M0 0 C-0.33 0.66 -0.66 1.32 -1 2 C-2.98 2 -4.96 2 -7 2 C-7 2.66 -7 3.32 -7 4 C-18.52164009 8.77676538 -18.52164009 8.77676538 -24 7 C-19.92896612 4.89774014 -15.74416557 3.3570847 -11.4375 1.8125 C-10.66986328 1.52697266 -9.90222656 1.24144531 -9.11132812 0.94726562 C-8.37205078 0.68236328 -7.63277344 0.41746094 -6.87109375 0.14453125 C-6.20005615 -0.09934326 -5.52901855 -0.34321777 -4.83764648 -0.59448242 C-3 -1 -3 -1 0 0 Z " transform="translate(643,848)" style="fill: #3AC8DC;"></path><path d="M0 0 C2.76095941 3.4751508 4.98227854 7.22230423 7.1875 11.0625 C7.73954102 11.99932617 7.73954102 11.99932617 8.30273438 12.95507812 C11 17.6440167 11 17.6440167 11 21 C5.63085412 16.44436107 1.84021982 10.412546 -1 4 C-0.6953125 1.62890625 -0.6953125 1.62890625 0 0 Z " transform="translate(683,480)" style="fill: #38C5DB;"></path><path d="M0 0 C1.14967098 3.44901293 0.92170742 3.7974635 -0.58203125 6.90625 C-0.93716797 7.65003906 -1.29230469 8.39382813 -1.65820312 9.16015625 C-2.22958008 10.31837891 -2.22958008 10.31837891 -2.8125 11.5 C-3.18181641 12.27214844 -3.55113281 13.04429687 -3.93164062 13.83984375 C-5.48259832 17.05313851 -7.01561847 20.0234277 -9 23 C-8.61581353 15.18820837 -6.77160898 7.12575067 -1.3359375 1.1796875 C-0.67464844 0.59574219 -0.67464844 0.59574219 0 0 Z " transform="translate(188,348)" style="fill: #33C3D8;"></path><path d="M0 0 C0.66 0.33 1.32 0.66 2 1 C-3.32783558 6.84343258 -9.78533322 12.57873504 -18 13 C-15.00652435 9.84819923 -11.53845819 7.66928695 -7.875 5.375 C-3.72029353 2.96040058 -3.72029353 2.96040058 0 0 Z " transform="translate(718,806)" style="fill: #3AC7DC;"></path><path d="M0 0 C0.33 0 0.66 0 1 0 C1.21544006 5.23115393 0.52370193 9.43785303 -1 14.4375 C-1.37125 15.67371094 -1.7425 16.90992188 -2.125 18.18359375 C-2.41375 19.11300781 -2.7025 20.04242187 -3 21 C-3.99 21 -4.98 21 -6 21 C-4.55613874 13.78069368 -2.42211826 6.94889267 0 0 Z " transform="translate(210,578)" style="fill: #39C7DE;"></path><path d="M0 0 C0.33 0 0.66 0 1 0 C1.57557674 6.47523838 -0.01996387 12.22388058 -3 18 C-5.140625 19.828125 -5.140625 19.828125 -7 21 C-6.26951699 16.31196344 -4.63363115 12.09114445 -2.9375 7.6875 C-2.51500977 6.57665039 -2.51500977 6.57665039 -2.08398438 5.44335938 C-1.39281425 3.62757345 -0.69688311 1.81360101 0 0 Z " transform="translate(854,627)" style="fill: #37C8DB;"></path><path d="M0 0 C0.66 0.33 1.32 0.66 2 1 C1.3503125 1.5878125 1.3503125 1.5878125 0.6875 2.1875 C-1.11872612 3.97428906 -1.11872612 3.97428906 -2.3125 6.4375 C-4.41815715 9.63497938 -6.80076258 10.90819092 -10 13 C-12.42373916 15.2485291 -14.72398034 17.6027722 -17 20 C-17 17 -17 17 -15.43945312 15.09887695 C-14.72724609 14.40238037 -14.01503906 13.70588379 -13.28125 12.98828125 C-12.51425781 12.23095703 -11.74726563 11.47363281 -10.95703125 10.69335938 C-10.14621094 9.90767578 -9.33539063 9.12199219 -8.5 8.3125 C-7.68917969 7.51521484 -6.87835938 6.71792969 -6.04296875 5.89648438 C-4.03517797 3.9241252 -2.0207313 1.95908508 0 0 Z " transform="translate(320,382)" style="fill: #45CEE1;"></path><path d="M0 0 C2.82619863 2.82619863 3.81363347 6.26200296 5.1875 9.9375 C5.47302734 10.66646484 5.75855469 11.39542969 6.05273438 12.14648438 C8.12105341 17.63683977 8.12105341 17.63683977 7 21 C7 20.34 7 19.68 7 19 C6.34 19 5.68 19 5 19 C2.12059087 12.5849443 0.4535179 7.02952752 0 0 Z " transform="translate(882,354)" style="fill: #3CC6D9;"></path><path d="M0 0 C0.99 0 1.98 0 3 0 C1.35433477 5.68502535 -1.29032784 10.76681636 -4 16 C-4.66 16 -5.32 16 -6 16 C-5.37183502 12.05050296 -4.1354471 8.80107972 -2.4375 5.1875 C-1.98246094 4.21167969 -1.52742187 3.23585938 -1.05859375 2.23046875 C-0.70925781 1.49441406 -0.35992188 0.75835938 0 0 Z " transform="translate(836,670)" style="fill: #30C1D8;"></path><path d="M0 0 C0.33 0 0.66 0 1 0 C1.43230491 7.34918342 -0.18225815 13.90215087 -2 21 C-2.33 21 -2.66 21 -3 21 C-3.02721176 19.10424749 -3.04649136 17.20838021 -3.0625 15.3125 C-3.07410156 14.25675781 -3.08570313 13.20101562 -3.09765625 12.11328125 C-3.00865425 9.27589738 -2.64939838 6.7561081 -2 4 C-1.34 4 -0.68 4 0 4 C0 2.68 0 1.36 0 0 Z " transform="translate(871,561)" style="fill: #26BAD0;"></path><path d="M0 0 C0.33 0.66 0.66 1.32 1 2 C0.19555664 3.87939453 0.19555664 3.87939453 -1.08984375 6.1328125 C-1.54423828 6.93847656 -1.99863281 7.74414062 -2.46679688 8.57421875 C-2.95212891 9.41597656 -3.43746094 10.25773437 -3.9375 11.125 C-4.41896484 11.97449219 -4.90042969 12.82398438 -5.39648438 13.69921875 C-6.59057183 15.80365011 -7.79196837 17.90355191 -9 20 C-9.66 19.01 -10.32 18.02 -11 17 C-10.01 15.515 -10.01 15.515 -9 14 C-8.5359375 13.071875 -8.5359375 13.071875 -8.0625 12.125 C-6.82553194 9.65106388 -5.53509433 7.3026415 -4 5 C-3.34 5 -2.68 5 -2 5 C-2 3.68 -2 2.36 -2 1 C-1.34 0.67 -0.68 0.34 0 0 Z " transform="translate(202,322)" style="fill: #3AC6DA;"></path><path d="M0 0 C5.5469395 2.37725978 7.68220072 6.69701955 10 12 C10.8125 15.5625 10.8125 15.5625 11 18 C7.91434503 15.28423427 5.92712681 11.91344172 3.8125 8.4375 C3.44447266 7.84775391 3.07644531 7.25800781 2.69726562 6.65039062 C0 2.25169585 0 2.25169585 0 0 Z " transform="translate(815,312)" style="fill: #3BC7DB;"></path><path d="M0 0 C3.34608023 3.02532308 5.30159994 6.03571006 7.3125 10.0625 C7.84488281 11.10535156 8.37726562 12.14820313 8.92578125 13.22265625 C10 16 10 16 9 19 C8.67 17.68 8.34 16.36 8 15 C7.34 15 6.68 15 6 15 C4.98965502 13.25595212 3.99207578 11.50450439 3 9.75 C2.1646875 8.28820312 2.1646875 8.28820312 1.3125 6.796875 C0 4 0 4 0 0 Z " transform="translate(661,416)" style="fill: #3CC8DB;"></path><path d="M0 0 C5.06040549 0.63888887 9.28011534 2.86279277 13.8125 5.0625 C14.60076172 5.43955078 15.38902344 5.81660156 16.20117188 6.20507812 C18.13652473 7.13170161 20.06859549 8.06517467 22 9 C22 9.33 22 9.66 22 10 C15.25 9.125 15.25 9.125 13 8 C13 7.34 13 6.68 13 6 C12.31292969 5.90203125 11.62585938 5.8040625 10.91796875 5.703125 C10.01691406 5.55359375 9.11585938 5.4040625 8.1875 5.25 C7.29417969 5.11078125 6.40085937 4.9715625 5.48046875 4.828125 C2.49427342 3.831159 1.61619656 2.6417565 0 0 Z " transform="translate(571,347)" style="fill: #47CEE3;"></path><path d="M0 0 C-2.61678563 1.70051054 -5.24462239 3.38310507 -7.875 5.0625 C-8.62136719 5.54783203 -9.36773437 6.03316406 -10.13671875 6.53320312 C-10.85214844 6.98759766 -11.56757813 7.44199219 -12.3046875 7.91015625 C-12.96452637 8.33433838 -13.62436523 8.75852051 -14.30419922 9.19555664 C-15.14362061 9.5937561 -15.14362061 9.5937561 -16 10 C-16.66 9.67 -17.32 9.34 -18 9 C-5.05492228 -2.52746114 -5.05492228 -2.52746114 0 0 Z " transform="translate(321,158)" style="fill: #28BCD2;"></path><path d="M0 0 C2.93214854 2.93214854 3.2899746 6.51366153 4.1875 10.4375 C4.37763672 11.21416016 4.56777344 11.99082031 4.76367188 12.79101562 C4.93833984 13.53931641 5.11300781 14.28761719 5.29296875 15.05859375 C5.53309692 16.08424438 5.53309692 16.08424438 5.77807617 17.13061523 C6 19 6 19 5 22 C4.34 19.03 3.68 16.06 3 13 C2.34 13 1.68 13 1 13 C-0.00496852 9.98509443 -0.10335303 7.95818308 -0.0625 4.8125 C-0.05347656 3.91144531 -0.04445313 3.01039063 -0.03515625 2.08203125 C-0.02355469 1.39496094 -0.01195313 0.70789063 0 0 Z " transform="translate(122,597)" style="fill: #20B6CC;"></path><path d="M0 0 C0 0.99 0 1.98 0 3 C-2.12040742 4.03033882 -4.24647908 5.04902854 -6.375 6.0625 C-8.15003906 6.91521484 -8.15003906 6.91521484 -9.9609375 7.78515625 C-10.96382813 8.18605469 -11.96671875 8.58695313 -13 9 C-13.66 8.67 -14.32 8.34 -15 8 C-11.5592251 3.81123055 -5.59368982 0 0 0 Z " transform="translate(346,143)" style="fill: #25BDD5;"></path><path d="M0 0 C0 3 0 3 -1.3125 4.375 C-1.869375 4.91125 -2.42625 5.4475 -3 6 C-3.495 6.825 -3.99 7.65 -4.5 8.5 C-6.88732394 12.47887324 -6.88732394 12.47887324 -9 14 C-10.32 13.67 -11.64 13.34 -13 13 C-8.71 8.71 -4.42 4.42 0 0 Z " transform="translate(772,761)" style="fill: #3FCADD;"></path><path d="M0 0 C6.30782486 0.41137988 11.71452158 2.4965986 17 6 C17.33 6.99 17.66 7.98 18 9 C13.64029169 7.65150163 9.68658562 5.95092154 5.625 3.875 C4.56539062 3.33617187 3.50578125 2.79734375 2.4140625 2.2421875 C1.61742187 1.83226562 0.82078125 1.42234375 0 1 C0 0.67 0 0.34 0 0 Z " transform="translate(662,180)" style="fill: #35C2D8;"></path><path d="M0 0 C6.40629424 -0.20852314 11.92972642 -0.1583195 18 2 C18 2.66 18 3.32 18 4 C18.66 4.33 19.32 4.66 20 5 C12.61221054 5.47156103 6.52428894 3.38732834 0 0 Z " transform="translate(588,155)" style="fill: #41CAE0;"></path><path d="M0 0 C0.99 0.495 0.99 0.495 2 1 C2 1.99 2 2.98 2 4 C2.66 4 3.32 4 4 4 C4.53067341 6.10170656 5.04922857 8.20647598 5.5625 10.3125 C5.85253906 11.48425781 6.14257812 12.65601563 6.44140625 13.86328125 C7 17 7 17 6 20 C3.4533129 13.38603107 1.36874156 6.95776959 0 0 Z " transform="translate(533,795)" style="fill: #1CB8D0;"></path><path d="M0 0 C3.66415876 2.06312314 6.70548128 4.35872176 9.8125 7.1875 C10.60269531 7.90292969 11.39289062 8.61835938 12.20703125 9.35546875 C12.79871094 9.89816406 13.39039063 10.44085938 14 11 C13.01 11.33 12.02 11.66 11 12 C8.9921875 10.890625 8.9921875 10.890625 6.875 9.25 C6.17117188 8.71890625 5.46734375 8.1878125 4.7421875 7.640625 C3 6 3 6 2 3 C1.34 2.67 0.68 2.34 0 2 C0 1.34 0 0.68 0 0 Z " transform="translate(762,196)" style="fill: #39C5DA;"></path><path d="M0 0 C0.84884766 0.54720703 0.84884766 0.54720703 1.71484375 1.10546875 C-0.57294663 2.13587042 -2.86466761 3.15498893 -5.16015625 4.16796875 C-6.13662109 4.60979492 -6.13662109 4.60979492 -7.1328125 5.06054688 C-8.82526166 5.80208388 -10.553842 6.45985876 -12.28515625 7.10546875 C-12.94515625 6.77546875 -13.60515625 6.44546875 -14.28515625 6.10546875 C-12.04169032 3.61830364 -9.88137469 2.19983649 -6.84765625 0.79296875 C-5.70490234 0.24189453 -5.70490234 0.24189453 -4.5390625 -0.3203125 C-2.28515625 -0.89453125 -2.28515625 -0.89453125 0 0 Z " transform="translate(504.28515625,609.89453125)" style="fill: #3AC9DD;"></path><path d="M0 0 C0.66 0 1.32 0 2 0 C2 0.66 2 1.32 2 2 C2.66 2 3.32 2 4 2 C4.53625 2.9075 5.0725 3.815 5.625 4.75 C8.12846522 8.78229894 11.72940751 10.23786232 16 12 C13 13 13 13 11.09765625 12.3984375 C6.71889211 10.19644862 3.66918372 8.27069395 1 4 C0.25 1.6875 0.25 1.6875 0 0 Z " transform="translate(540,328)" style="fill: #38C5DA;"></path><path d="M0 0 C0.89203125 0.29648438 1.7840625 0.59296875 2.703125 0.8984375 C3.37859375 1.13820312 4.0540625 1.37796875 4.75 1.625 C4.75 2.285 4.75 2.945 4.75 3.625 C6.4 3.955 8.05 4.285 9.75 4.625 C5.58326479 6.41841438 2.00336659 4.63673384 -2 3.1875 C-2.69738281 2.94451172 -3.39476562 2.70152344 -4.11328125 2.45117188 C-5.82885098 1.85189752 -7.53989715 1.23970115 -9.25 0.625 C-5.71808845 -1.66909208 -3.91045087 -1.33778582 0 0 Z " transform="translate(617.25,160.375)" style="fill: #41C8DC;"></path><path d="M0 0 C0.33 0.66 0.66 1.32 1 2 C1.66 2 2.32 2 3 2 C3.53341184 3.57914015 4.05125763 5.16354387 4.5625 6.75 C4.85253906 7.63171875 5.14257812 8.5134375 5.44140625 9.421875 C6.01697435 12.07834316 5.89248371 13.47031106 5 16 C2.70311431 13.70311431 2.28148697 12.21071829 1.375 9.125 C1.11460937 8.26132812 0.85421875 7.39765625 0.5859375 6.5078125 C0 4 0 4 0 0 Z " transform="translate(164,606)" style="fill: #31C2D6;"></path><path d="M0 0 C0.33 0 0.66 0 1 0 C1.25408976 3.79043181 1.47403593 7.58208053 1.6875 11.375 C1.76033203 12.45523438 1.83316406 13.53546875 1.90820312 14.6484375 C1.96298828 15.6796875 2.01777344 16.7109375 2.07421875 17.7734375 C2.13182373 18.72653809 2.18942871 19.67963867 2.2487793 20.66162109 C2.16668213 21.43328613 2.08458496 22.20495117 2 23 C0.515 23.99 0.515 23.99 -1 25 C-0.67 16.75 -0.34 8.5 0 0 Z " transform="translate(873,522)" style="fill: #5CD8E9;"></path><path d="M0 0 C1.16909807 3.50729422 0.85056945 5.44307323 0 9 C-0.99 9.495 -0.99 9.495 -2 10 C-2.40729228 12.32156597 -2.74438677 14.6568787 -3 17 C-3.99 17.33 -4.98 17.66 -6 18 C-4.83805848 11.53287812 -2.8751252 5.90377651 0 0 Z " transform="translate(141,356)" style="fill: #40C9DD;"></path><path d="M0 0 C-0.66 0 -1.32 0 -2 0 C-2 0.66 -2 1.32 -2 2 C-6.53701494 3.45184478 -10.18061476 4.23509196 -15 4 C-15 3.34 -15 2.68 -15 2 C-13.25364835 1.46706165 -11.50272348 0.94909337 -9.75 0.4375 C-8.77546875 0.14746094 -7.8009375 -0.14257812 -6.796875 -0.44140625 C-4.03756068 -0.99249836 -2.6087176 -0.93789609 0 0 Z " transform="translate(624,896)" style="fill: #2DBED4;"></path><path d="M0 0 C-0.99 0 -1.98 0 -3 0 C-3 0.66 -3 1.32 -3 2 C-6.66447432 3.64800856 -9.81203466 4.33580973 -13.8125 4.625 C-14.78832031 4.69976563 -15.76414062 4.77453125 -16.76953125 4.8515625 C-17.87361328 4.92503906 -17.87361328 4.92503906 -19 5 C-16.4156782 2.4156782 -14.10624423 1.89598837 -10.625 0.8125 C-9.48289062 0.44769531 -8.34078125 0.08289063 -7.1640625 -0.29296875 C-4.18525347 -0.95860385 -2.79128097 -1.07938697 0 0 Z " transform="translate(461,576)" style="fill: #3ECDE0;"></path><path d="M0 0 C2 1 2 1 3.125 4.25 C3.85463482 7.37700635 4.19234975 9.82622905 4 13 C3.67 12.34 3.34 11.68 3 11 C1.68 10.67 0.36 10.34 -1 10 C-0.67 6.7 -0.34 3.4 0 0 Z " transform="translate(860,405)" style="fill: #20B8C9;"></path><path d="M0 0 C4.41309542 3.15221101 7.00793014 6.55463907 10 11 C9.67 11.66 9.34 12.32 9 13 C5.43550748 10.32663061 2.50279843 7.70784952 0 4 C0 2.68 0 1.36 0 0 Z " transform="translate(827,262)" style="fill: #3CC4D9;"></path><path d="M0 0 C-3.43138632 2.79338987 -7.18782761 4.77735487 -11.125 6.75 C-12.07439453 7.24306641 -12.07439453 7.24306641 -13.04296875 7.74609375 C-14.66439906 8.56197269 -16.33012128 9.28852285 -18 10 C-18.66 9.67 -19.32 9.34 -20 9 C-18.54462432 8.16151196 -17.08559627 7.32936066 -15.625 6.5 C-14.81289063 6.0359375 -14.00078125 5.571875 -13.1640625 5.09375 C-11 4 -11 4 -9 4 C-8.67 3.01 -8.34 2.02 -8 1 C-5.29120665 -0.35439668 -2.99066732 -0.06501451 0 0 Z " transform="translate(362,180)" style="fill: #4AD2E7;"></path><path d="M0 0 C-0.66 0 -1.32 0 -2 0 C-2.33 0.99 -2.66 1.98 -3 3 C-4.9609375 4.203125 -4.9609375 4.203125 -7.375 5.25 C-8.56222656 5.78367187 -8.56222656 5.78367187 -9.7734375 6.328125 C-12 7 -12 7 -15 6 C-14.34 6 -13.68 6 -13 6 C-13 5.34 -13 4.68 -13 4 C-11.59248779 3.13083113 -10.1735479 2.28014851 -8.75 1.4375 C-7.96109375 0.96183594 -7.1721875 0.48617187 -6.359375 -0.00390625 C-3.69155375 -1.13022151 -2.65498232 -1.0169313 0 0 Z " transform="translate(684,873)" style="fill: #33BFD5;"></path><path d="M0 0 C2.29158942 2.89818662 4.07862366 5.83140544 5.75 9.125 C6.42289063 10.42824219 6.42289063 10.42824219 7.109375 11.7578125 C7.40328125 12.49773438 7.6971875 13.23765625 8 14 C7.67 14.66 7.34 15.32 7 16 C3.48684112 13.65789408 3.16255306 12.45748068 1.8125 8.5625 C1.46832031 7.59441406 1.12414062 6.62632812 0.76953125 5.62890625 C0 3 0 3 0 0 Z " transform="translate(550,836)" style="fill: #41CBDD;"></path><path d="M0 0 C0.99 0.495 0.99 0.495 2 1 C2 1.66 2 2.32 2 3 C2.66 3 3.32 3 4 3 C4.69937202 4.4317616 5.38412718 5.87067032 6.0625 7.3125 C6.44535156 8.11300781 6.82820312 8.91351562 7.22265625 9.73828125 C8 12 8 12 7 15 C2.72504406 10.57763179 1.48701402 5.80160774 0 0 Z " transform="translate(174,637)" style="fill: #34C2DA;"></path><path d="M0 0 C0.66 0.33 1.32 0.66 2 1 C0.33333333 2.66666667 -1.33333333 4.33333333 -3 6 C-3.515625 6.61875 -4.03125 7.2375 -4.5625 7.875 C-5.2740625 8.431875 -5.2740625 8.431875 -6 9 C-7.32 8.67 -8.64 8.34 -10 8 C-6.7 5.36 -3.4 2.72 0 0 Z " transform="translate(346,361)" style="fill: #32C7DC;"></path><path d="M0 0 C2.16796875 0.36328125 2.16796875 0.36328125 4 1 C2.90220176 2.15193623 1.79650554 3.29634937 0.6875 4.4375 C0.07261719 5.07558594 -0.54226562 5.71367187 -1.17578125 6.37109375 C-3 8 -3 8 -6 9 C-5.52753358 4.74780225 -3.22727623 2.62685275 0 0 Z " transform="translate(250,205)" style="fill: #2EC0D5;"></path><path d="M0 0 C-3.79817765 3.22269618 -7.57391854 5.74520378 -12 8 C-12.66 7.67 -13.32 7.34 -14 7 C-10.41093986 2.98025264 -5.55416198 -1.85138733 0 0 Z " transform="translate(345,188)" style="fill: #2DC3D8;"></path><path d="M0 0 C-2.37115444 2.74554724 -4.53079925 3.95117186 -8 5 C-11.3125 5.125 -11.3125 5.125 -14 5 C-10.63156097 2.05261585 -4.40469071 -2.20234535 0 0 Z " transform="translate(391,167)" style="fill: #2CC0D6;"></path><path d="M0 0 C6.03280791 1.6166348 9.950809 3.16709462 14 8 C10.37346766 8 8.94576483 6.99610743 5.875 5.125 C4.98554688 4.59132813 4.09609375 4.05765625 3.1796875 3.5078125 C1 2 1 2 0 0 Z " transform="translate(295,846)" style="fill: #3AC7DB;"></path><path d="M0 0 C-2.76854598 2.14909962 -5.57834526 4.01778828 -8.625 5.75 C-9.40101563 6.19859375 -10.17703125 6.6471875 -10.9765625 7.109375 C-11.97816406 7.55023437 -11.97816406 7.55023437 -13 8 C-13.66 7.67 -14.32 7.34 -15 7 C-6.375 -0.28333333 -6.375 -0.28333333 0 0 Z " transform="translate(490,617)" style="fill: #3FCCDF;"></path><path d="M0 0 C0 4.6091008 -2.67465029 7.57998246 -5.75 10.875 C-6.1625 11.24625 -6.575 11.6175 -7 12 C-7.99 11.67 -8.98 11.34 -10 11 C-6.7 7.37 -3.4 3.74 0 0 Z " transform="translate(413,306)" style="fill: #3CCDDE;"></path><path d="M0 0 C1.1171875 1.703125 1.1171875 1.703125 2 4 C1.3203125 6.359375 1.3203125 6.359375 0.125 8.75 C-0.26429688 9.54921875 -0.65359375 10.3484375 -1.0546875 11.171875 C-1.36664063 11.77515625 -1.67859375 12.3784375 -2 13 C-2.66 12.67 -3.32 12.34 -4 12 C-3.33501617 7.61110675 -1.81242323 4.0188515 0 0 Z " transform="translate(229,528)" style="fill: #33C6DA;"></path><path d="M0 0 C0 0.66 0 1.32 0 2 C1.65 2 3.3 2 5 2 C5 2.33 5 2.66 5 3 C-2.26 2.67 -9.52 2.34 -17 2 C-17 1.67 -17 1.34 -17 1 C-14.9168207 0.83141902 -12.83344956 0.66520745 -10.75 0.5 C-9.58984375 0.4071875 -8.4296875 0.314375 -7.234375 0.21875 C-4.82731342 0.05595356 -2.41256049 0 0 0 Z " transform="translate(578,462)" style="fill: #4FD4E6;"></path><path d="M0 0 C4.83256305 0.41421969 6.82679218 2.46413986 10 6 C9.67 6.99 9.34 7.98 9 9 C7.49704815 7.69088122 5.99770689 6.37761608 4.5 5.0625 C3.6646875 4.33160156 2.829375 3.60070312 1.96875 2.84765625 C1.3190625 2.23792969 0.669375 1.62820313 0 1 C0 0.67 0 0.34 0 0 Z " transform="translate(635,390)" style="fill: #30C2D7;"></path><path d="M0 0 C-2.54471018 3.11020134 -5.15896252 4.00133026 -9 5 C-11.875 5.125 -11.875 5.125 -14 5 C-11.75043698 2.75043698 -9.93676737 1.99489035 -7 0.8125 C-6.113125 0.44769531 -5.22625 0.08289063 -4.3125 -0.29296875 C-2 -1 -2 -1 0 0 Z " transform="translate(662,840)" style="fill: #3ECBDD;"></path><path d="M0 0 C0.33 0.66 0.66 1.32 1 2 C1.66 2 2.32 2 3 2 C4.60355101 5.50776784 5.22036864 8.14354879 5 12 C4.34 12 3.68 12 3 12 C2.49166409 10.75336669 1.99368855 9.50250613 1.5 8.25 C1.2215625 7.55390625 0.943125 6.8578125 0.65625 6.140625 C0 4 0 4 0 0 Z " transform="translate(888,373)" style="fill: #29BED0;"></path><path d="M0 0 C0 4.70031035 -2.89257072 7.63058605 -6 11 C-8.875 12.5 -8.875 12.5 -11 13 C-9.43638038 9.16202456 -6.97489917 6.8332373 -4 4 C-3.236875 3.236875 -2.47375 2.47375 -1.6875 1.6875 C-1.130625 1.130625 -0.57375 0.57375 0 0 Z " transform="translate(229,227)" style="fill: #10B3CD;"></path><path d="M0 0 C5.12605611 3.04792525 6.0854722 6.4704241 7.51953125 11.953125 C7.67808594 12.62859375 7.83664063 13.3040625 8 14 C5.02873292 11.28922757 4.11756266 8.86848614 3 5 C2.34 5 1.68 5 1 5 C0.34 3.68 -0.32 2.36 -1 1 C-0.67 0.67 -0.34 0.34 0 0 Z " transform="translate(155,691)" style="fill: #41D2E1;"></path><path d="M0 0 C0.68359375 1.640625 0.68359375 1.640625 1 4 C-0.21484375 6.796875 -0.21484375 6.796875 -1.9375 9.75 C-2.78634766 11.22726562 -2.78634766 11.22726562 -3.65234375 12.734375 C-4.09707031 13.48203125 -4.54179688 14.2296875 -5 15 C-6 13 -6 13 -5.3125 10.3125 C-3.84390539 6.60604693 -2.0494309 3.41571816 0 0 Z " transform="translate(720,603)" style="fill: #3ECBDE;"></path><path d="M0 0 C1.28080392 3.84241177 0.30805584 5.22117203 -1 9 C-1.37531446 11.32694964 -1.71917202 13.65976685 -2 16 C-2.66 16 -3.32 16 -4 16 C-4.33 16.66 -4.66 17.32 -5 18 C-4.42934122 11.58008874 -2.32655091 5.98410537 0 0 Z " transform="translate(134,374)" style="fill: #54D2E2;"></path><path d="M0 0 C0.66 0.33 1.32 0.66 2 1 C2 1.66 2 2.32 2 3 C-3.078125 6.22265625 -3.078125 6.22265625 -5 7 C-6.32 6.67 -7.64 6.34 -9 6 C-6.03 4.02 -3.06 2.04 0 0 Z " transform="translate(363,350)" style="fill: #37C7DD;"></path><path d="M0 0 C4.61513112 1.31860889 8.09897612 3.21355437 12 6 C10 7 10 7 8.125 6.58203125 C2.33202907 4.48420906 2.33202907 4.48420906 0.5 1.8125 C0.335 1.214375 0.17 0.61625 0 0 Z " transform="translate(308,853)" style="fill: #28BAD1;"></path><path d="M0 0 C0.66 0.33 1.32 0.66 2 1 C-1.49087093 5.0042343 -3.64951939 6.62671065 -9 7 C-6.25604436 4.05278838 -3.61662784 1.80831392 0 0 Z " transform="translate(477,630)" style="fill: #3AC7DE;"></path><path d="M0 0 C2 3 2 3 1.86328125 5.0078125 C1.68152344 5.70648437 1.49976563 6.40515625 1.3125 7.125 C1.14363281 7.82882812 0.97476563 8.53265625 0.80078125 9.2578125 C0.53652344 9.83273437 0.27226563 10.40765625 0 11 C-0.99 11.33 -1.98 11.66 -3 12 C-2.68950274 10.56206608 -2.3765224 9.1246682 -2.0625 7.6875 C-1.88847656 6.88699219 -1.71445312 6.08648438 -1.53515625 5.26171875 C-1 3 -1 3 0 0 Z " transform="translate(858,614)" style="fill: #3DC9DD;"></path><path d="M0 0 C0.556875 0.37125 1.11375 0.7425 1.6875 1.125 C-2.93447306 3.34354707 -6.08074163 4.50781159 -11.3125 4.125 C-4.26803691 -1.61493289 -4.26803691 -1.61493289 0 0 Z " transform="translate(660.3125,882.875)" style="fill: #34C1D7;"></path><path d="M0 0 C1.25955231 3.77865693 0.48087189 5.03411786 -0.9375 8.6875 C-1.31777344 9.68136719 -1.69804688 10.67523437 -2.08984375 11.69921875 C-2.39019531 12.45847656 -2.69054687 13.21773437 -3 14 C-4.38254904 9.85235288 -3.72364288 6.67342415 -2 2.6875 C-1 1 -1 1 0 0 Z " transform="translate(891,640)" style="fill: #40CBDD;"></path><path d="M0 0 C2.78637633 4.1795645 1.79562512 6.14668677 1 11 C0.34 11 -0.32 11 -1 11 C-1.33 11.66 -1.66 12.32 -2 13 C-1.48041715 8.62065881 -0.94324258 4.31196609 0 0 Z " transform="translate(865,586)" style="fill: #3FCBE0;"></path><path d="M0 0 C0 3.41321235 -0.66867466 4.39472885 -2.5 7.1875 C-2.9640625 7.90292969 -3.428125 8.61835938 -3.90625 9.35546875 C-4.44765625 10.16951172 -4.44765625 10.16951172 -5 11 C-5.61328125 9.19921875 -5.61328125 9.19921875 -6 7 C-2.82191781 1.4109589 -2.82191781 1.4109589 0 0 Z " transform="translate(209,311)" style="fill: #3CC7DC;"></path><path d="M0 0 C0.66 0.33 1.32 0.66 2 1 C0.02 3.31 -1.96 5.62 -4 8 C-5.32 7.67 -6.64 7.34 -8 7 C-5.36 4.69 -2.72 2.38 0 0 Z " transform="translate(273,186)" style="fill: #3BC6DA;"></path><path d="M0 0 C0.66 0.33 1.32 0.66 2 1 C-0.25740623 3.33524782 -2.2805761 5.18705073 -5 7 C-6.32 6.67 -7.64 6.34 -9 6 C-6.03 4.02 -3.06 2.04 0 0 Z " transform="translate(320,200)" style="fill: #2ABDD2;"></path><path d="M0 0 C2.03819846 2.03819846 2.67841059 3.29417798 3.6875 5.9375 C3.95949219 6.62714844 4.23148438 7.31679688 4.51171875 8.02734375 C5 10 5 10 4 13 C3.67 11.68 3.34 10.36 3 9 C2.34 9 1.68 9 1 9 C-0.4783226 6.04335481 -0.06032783 3.25770263 0 0 Z " transform="translate(138,649)" style="fill: #21B6CC;"></path><path d="M0 0 C1 2 1 2 0.22265625 4.3828125 C-0.16019531 5.28773438 -0.54304687 6.19265625 -0.9375 7.125 C-1.31777344 8.03507813 -1.69804688 8.94515625 -2.08984375 9.8828125 C-2.39019531 10.58148437 -2.69054687 11.28015625 -3 12 C-3.33 12 -3.66 12 -4 12 C-4.125 5.25 -4.125 5.25 -3 3 C-2.34 3 -1.68 3 -1 3 C-0.67 2.01 -0.34 1.02 0 0 Z " transform="translate(849,645)" style="fill: #22BAD0;"></path><path d="M0 0 C-2.97 1.98 -5.94 3.96 -9 6 C-9.66 5.67 -10.32 5.34 -11 5 C-4.92783505 -1.23195876 -4.92783505 -1.23195876 0 0 Z " transform="translate(475,626)" style="fill: #38C6DC;"></path><path d="M0 0 C0.33 0 0.66 0 1 0 C1.19622241 4.21878192 0.80230168 7.17010894 -1 11 C-1.99 11 -2.98 11 -4 11 C-3.52269162 9.5410574 -3.04308958 8.08286504 -2.5625 6.625 C-2.29566406 5.81289063 -2.02882812 5.00078125 -1.75390625 4.1640625 C-1 2 -1 2 0 0 Z " transform="translate(247,486)" style="fill: #3AC6DA;"></path><path d="M0 0 C0.33 0 0.66 0 1 0 C1.125 6.625 1.125 6.625 0 10 C-0.66 10 -1.32 10 -2 10 C-2.33 10.66 -2.66 11.32 -3 12 C-2.49202991 7.6822542 -1.80317221 3.96697886 0 0 Z " transform="translate(166,401)" style="fill: #27BBD1;"></path><path d="M0 0 C0.66 0.33 1.32 0.66 2 1 C0.02 3.31 -1.96 5.62 -4 8 C-5.32 7.67 -6.64 7.34 -8 7 C-5.36 4.69 -2.72 2.38 0 0 Z " transform="translate(478,243)" style="fill: #39CEE0;"></path><path d="M0 0 C4.84659077 0.59104765 8.60748167 1.97944157 13 4 C9.20519658 5.26493447 6.87641726 4.89988258 3 4 C1.0625 1.9375 1.0625 1.9375 0 0 Z " transform="translate(644,130)" style="fill: #48CBDD;"></path><path d="M0 0 C-1.24176695 0.70226141 -2.49385599 1.38629109 -3.75 2.0625 C-4.79414062 2.63677734 -4.79414062 2.63677734 -5.859375 3.22265625 C-8.36140628 4.1312406 -9.5332355 3.88336837 -12 3 C-11.34 3 -10.68 3 -10 3 C-10 2.34 -10 1.68 -10 1 C-8.71073008 0.63720544 -7.41846728 0.28503302 -6.125 -0.0625 C-5.40570312 -0.25972656 -4.68640625 -0.45695313 -3.9453125 -0.66015625 C-2 -1 -2 -1 0 0 Z " transform="translate(653,845)" style="fill: #26BAD0;"></path><path d="M0 0 C0.66 0.33 1.32 0.66 2 1 C-0.44939271 5.77631579 -0.44939271 5.77631579 -3 6.8125 C-5 7 -5 7 -8 7 C-5.36 4.69 -2.72 2.38 0 0 Z " transform="translate(742,788)" style="fill: #40C9DC;"></path><path d="M0 0 C0 3 0 3 -1.3125 4.60546875 C-1.869375 5.12753906 -2.42625 5.64960937 -3 6.1875 C-3.556875 6.71730469 -4.11375 7.24710938 -4.6875 7.79296875 C-5.120625 8.19128906 -5.55375 8.58960938 -6 9 C-6.99 8.67 -7.98 8.34 -9 8 C-6.03 5.36 -3.06 2.72 0 0 Z " transform="translate(784,750)" style="fill: #28BCD3;"></path><path d="M0 0 C0.66 0 1.32 0 2 0 C2 0.66 2 1.32 2 2 C2.639375 2.20625 3.27875 2.4125 3.9375 2.625 C6 4 6 4 6.75 7.125 C6.8325 8.07375 6.915 9.0225 7 10 C3.125 6.25 3.125 6.25 2 4 C1.01 3.34 0.02 2.68 -1 2 C-0.67 1.34 -0.34 0.68 0 0 Z " transform="translate(180,733)" style="fill: #39C9DD;"></path><path d="M0 0 C0.33 0 0.66 0 1 0 C0.67 2.97 0.34 5.94 0 9 C-0.66 9 -1.32 9 -2 9 C-2.33 9.66 -2.66 10.32 -3 11 C-2.53199289 6.94393835 -2.12046792 3.53411321 0 0 Z " transform="translate(531,711)" style="fill: #25BACF;"></path><path d="M0 0 C0.66 0 1.32 0 2 0 C2.69710731 1.28650706 3.38242876 2.57940665 4.0625 3.875 C4.44535156 4.59429687 4.82820312 5.31359375 5.22265625 6.0546875 C5.47917969 6.69664062 5.73570312 7.33859375 6 8 C5.67 8.66 5.34 9.32 5 10 C3.5 8.625 3.5 8.625 2 7 C2 6.34 2 5.68 2 5 C1.34 5 0.68 5 0 5 C0 3.35 0 1.7 0 0 Z " transform="translate(559,464)" style="fill: #3AC8DC;"></path><path d="M0 0 C4.571279 0.54855348 8.67435795 1.41744803 13 3 C10.64561267 4.42944945 9.51967567 5.08661261 6.75 4.625 C6.1725 4.41875 5.595 4.2125 5 4 C5 3.34 5 2.68 5 2 C3.35 1.67 1.7 1.34 0 1 C0 0.67 0 0.34 0 0 Z " transform="translate(619,122)" style="fill: #48CCDE;"></path><path d="M0 0 C0.33 0 0.66 0 1 0 C0.88541307 1.43836751 0.75790884 2.87570966 0.625 4.3125 C0.55539063 5.11300781 0.48578125 5.91351562 0.4140625 6.73828125 C0 9 0 9 -2 12 C-2 8.7 -2 5.4 -2 2 C-1.34 2 -0.68 2 0 2 C0 1.34 0 0.68 0 0 Z " transform="translate(193,643)" style="fill: #23B8D1;"></path><path d="M0 0 C2.475 0.99 2.475 0.99 5 2 C4.67 2.99 4.34 3.98 4 5 C1.69 4.67 -0.62 4.34 -3 4 C-2.34 3.67 -1.68 3.34 -1 3 C-0.67 2.01 -0.34 1.02 0 0 Z " transform="translate(622,575)" style="fill: #000000;"></path><path d="M0 0 C1 3 1 3 0.22265625 5.04296875 C-0.16019531 5.75066406 -0.54304687 6.45835937 -0.9375 7.1875 C-1.31777344 7.90292969 -1.69804687 8.61835938 -2.08984375 9.35546875 C-2.54037109 10.16951172 -2.54037109 10.16951172 -3 11 C-3.33 11 -3.66 11 -4 11 C-4.36630156 7.06225823 -4.30233203 5.43460229 -2 2.125 C-1.34 1.42375 -0.68 0.7225 0 0 Z " transform="translate(188,348)" style="fill: #3CCCDD;"></path><path d="M0 0 C1.31223496 3.93670488 0.24296256 6.12488144 -1 10 C-1.66 10 -2.32 10 -3 10 C-3.66 11.32 -4.32 12.64 -5 14 C-4.34580901 8.93001981 -2.1453591 4.58009223 0 0 Z " transform="translate(147,342)" style="fill: #4DCDDF;"></path><path d="M0 0 C0.33 1.32 0.66 2.64 1 4 C-1.97 6.475 -1.97 6.475 -5 9 C-5 4.61031544 -2.87194899 3.23094261 0 0 Z " transform="translate(203,254)" style="fill: #3FC8DA;"></path><path d="M0 0 C2.64 1.98 5.28 3.96 8 6 C7.67 7.32 7.34 8.64 7 10 C5.82739389 8.71372289 4.6620717 7.42080217 3.5 6.125 C2.52546875 5.04605469 2.52546875 5.04605469 1.53125 3.9453125 C0 2 0 2 0 0 Z " transform="translate(819,254)" style="fill: #23B9CE;"></path><path d="M0 0 C0.66 0.33 1.32 0.66 2 1 C2 1.66 2 2.32 2 3 C0.71349294 3.69710731 -0.57940665 4.38242876 -1.875 5.0625 C-2.95394531 5.63677734 -2.95394531 5.63677734 -4.0546875 6.22265625 C-5.01761719 6.60744141 -5.01761719 6.60744141 -6 7 C-6.66 6.67 -7.32 6.34 -8 6 C-5.36 4.02 -2.72 2.04 0 0 Z " transform="translate(498,229)" style="fill: #3AC8DB;"></path><path d="M0 0 C-0.33 0.66 -0.66 1.32 -1 2 C-3.3140622 2.73075648 -5.64828869 3.40138258 -8 4 C-8.66 3.34 -9.32 2.68 -10 2 C-3.375 -1.125 -3.375 -1.125 0 0 Z " transform="translate(365,136)" style="fill: #3AC6DB;"></path><path d="M0 0 C4.3177458 0.50797009 8.03302114 1.19682779 12 3 C9 5 9 5 6.375 4.75 C5.59125 4.5025 4.8075 4.255 4 4 C3.67 3.34 3.34 2.68 3 2 C2.01 1.34 1.02 0.68 0 0 Z " transform="translate(632,126)" style="fill: #45D0E1;"></path><path d="M0 0 C0.33 0.66 0.66 1.32 1 2 C-3.05606165 1.53199289 -6.46588679 1.12046792 -10 -1 C-5.97215907 -2.15081169 -3.71901707 -1.96281457 0 0 Z " transform="translate(417,898)" style="fill: #40CADD;"></path><path d="M0 0 C3 1 3 1 4.1875 3.375 C5 6 5 6 5 9 C4.34 9 3.68 9 3 9 C2.01 6.03 1.02 3.06 0 0 Z " transform="translate(143,665)" style="fill: #35C0D5;"></path><path d="M0 0 C2.3129482 2.3129482 2.49580975 3.47904875 3.125 6.625 C3.37636719 7.85089844 3.37636719 7.85089844 3.6328125 9.1015625 C3.81457031 10.04128906 3.81457031 10.04128906 4 11 C3.67 10.34 3.34 9.68 3 9 C2.34 9 1.68 9 1 9 C-0.4783226 6.04335481 -0.06032783 3.25770263 0 0 Z " transform="translate(133,636)" style="fill: #25B8CC;"></path><path d="M0 0 C0.66 0.33 1.32 0.66 2 1 C0.10595266 4.34243648 -0.94091591 4.97997149 -4.6875 6.25 C-6.3271875 6.62125 -6.3271875 6.62125 -8 7 C-5.42215154 4.35247996 -3.08351902 2.05567935 0 0 Z " transform="translate(291,173)" style="fill: #41CCDE;"></path><path d="M0 0 C6.4 -0.49230769 6.4 -0.49230769 9.4375 2 C10.2109375 2.99 10.2109375 2.99 11 4 C7.0507432 3.44894091 3.65079826 2.61064629 0 1 C0 0.67 0 0.34 0 0 Z " transform="translate(627,166)" style="fill: #44CBDF;"></path><path d="M0 0 C3.55780196 0.60990891 6.6828589 1.5783681 10 3 C9.67 3.66 9.34 4.32 9 5 C3.46153846 4.50769231 3.46153846 4.50769231 1.125 1.9375 C0.75375 1.298125 0.3825 0.65875 0 0 Z " transform="translate(657,135)" style="fill: #43CADD;"></path><path d="M0 0 C3.93673644 1.31224548 6.22719294 2.91910327 9 6 C6.1875 5.8125 6.1875 5.8125 3 5 C1.125 2.4375 1.125 2.4375 0 0 Z " transform="translate(288,840)" style="fill: #26B5CF;"></path><path d="M0 0 C0.8125 1.6875 0.8125 1.6875 1 4 C-1.4375 6.75 -1.4375 6.75 -4 9 C-3.46930939 5.17902761 -2.50298434 2.93828597 0 0 Z " transform="translate(845,731)" style="fill: #33BED5;"></path><path d="M0 0 C2.3125 0.1875 2.3125 0.1875 5 1 C6.8125 3.5625 6.8125 3.5625 8 6 C4.08597051 4.73058503 2.20927127 3.48832306 0 0 Z " transform="translate(751,189)" style="fill: #2DBED4;"></path><path d="M0 0 C3.125 0.6875 3.125 0.6875 6 2 C6.33 2.99 6.66 3.98 7 5 C3.44219804 4.39009109 0.3171411 3.4216319 -3 2 C-2.01 1.34 -1.02 0.68 0 0 Z " transform="translate(646,171)" style="fill: #3FC6DD;"></path><path d="M0 0 C0.88492145 2.47778006 1.11637742 3.66056586 0.25 6.1875 C-1 8 -1 8 -4 9 C-2.94124926 5.59687262 -1.99097846 2.98646769 0 0 Z " transform="translate(262,457)" style="fill: #3AC7DA;"></path><path d="M0 0 C3.82097239 0.53069061 6.06171403 1.49701566 9 4 C3.48 4.368 3.48 4.368 1.125 2.5625 C0 1 0 1 0 0 Z " transform="translate(637,168)" style="fill: #2ABBD2;"></path><path d="M0 0 C4.12751449 0.60698743 7.3321148 2.03810791 11 4 C11 4.33 11 4.66 11 5 C8.69 4.67 6.38 4.34 4 4 C4 3.34 4 2.68 4 2 C2.68 1.34 1.36 0.68 0 0 Z " transform="translate(669,140)" style="fill: #4ACCDD;"></path><path d="M0 0 C4.875 2.625 4.875 2.625 6 6 C5.34 6.66 4.68 7.32 4 8 C0 2.25 0 2.25 0 0 Z " transform="translate(170,717)" style="fill: #3AC3D8;"></path><path d="M0 0 C0.33 0.66 0.66 1.32 1 2 C-0.98 4.97 -0.98 4.97 -3 8 C-3.75 6.25 -3.75 6.25 -4 4 C-2.0625 1.75 -2.0625 1.75 0 0 Z " transform="translate(856,716)" style="fill: #3FC5DA;"></path><path d="M0 0 C0.33 0.66 0.66 1.32 1 2 C0.22265625 3.7265625 0.22265625 3.7265625 -0.9375 5.625 C-1.618125 6.73875 -2.29875 7.8525 -3 9 C-3.89674777 6.48910624 -4.13172674 5.35464891 -3.1875 2.8125 C-2 1 -2 1 0 0 Z " transform="translate(713,618)" style="fill: #3CC7DC;"></path><path d="M0 0 C0.93065133 2.60582371 1.14917407 3.64198224 0.0625 6.25 C-0.4634375 7.11625 -0.4634375 7.11625 -1 8 C-1.66 8 -2.32 8 -3 8 C-2.67 6.02 -2.34 4.04 -2 2 C-1.34 2 -0.68 2 0 2 C0 1.34 0 0.68 0 0 Z " transform="translate(207,591)" style="fill: #2FC2D7;"></path><path d="M0 0 C0.33 0 0.66 0 1 0 C1.33 3.96 1.66 7.92 2 12 C1.67 11.34 1.34 10.68 1 10 C0.34 10 -0.32 10 -1 10 C-0.67 6.7 -0.34 3.4 0 0 Z " transform="translate(155,558)" style="fill: #52D3E4;"></path><path d="M0 0 C3.82097239 0.53069061 6.06171403 1.49701566 9 4 C2.25 3.125 2.25 3.125 0 2 C0 1.34 0 0.68 0 0 Z " transform="translate(584,353)" style="fill: #3AC7DB;"></path><path d="M0 0 C0.66 0.33 1.32 0.66 2 1 C0.68 2.65 -0.64 4.3 -2 6 C-3.32 5.67 -4.64 5.34 -6 5 C-4.02 3.35 -2.04 1.7 0 0 Z " transform="translate(510,220)" style="fill: #3AC6DC;"></path><path d="M0 0 C0.66 0.33 1.32 0.66 2 1 C0.25 3.0625 0.25 3.0625 -2 5 C-4.25 4.75 -4.25 4.75 -6 4 C-4.02 2.68 -2.04 1.36 0 0 Z " transform="translate(518,215)" style="fill: #42CCDF;"></path><path d="M0 0 C0.66 0.33 1.32 0.66 2 1 C0.68 2.65 -0.64 4.3 -2 6 C-3.32 5.67 -4.64 5.34 -6 5 C-4.02 3.35 -2.04 1.7 0 0 Z " transform="translate(281,180)" style="fill: #3FC8DB;"></path><path d="M0 0 C3.37503669 1.1858237 5.64722731 2.27573689 8 5 C5.36 4.34 2.72 3.68 0 3 C0 2.01 0 1.02 0 0 Z " transform="translate(716,164)" style="fill: #3EC5DA;"></path><path d="M0 0 C2.89932357 2.39509338 3.50168276 4.31245243 4 8 C3.01 7.67 2.02 7.34 1 7 C0.67 4.69 0.34 2.38 0 0 Z " transform="translate(737,548)" style="fill: #3FCADC;"></path><path d="M0 0 C1 2 1 2 0.25 5.0625 C-0.1625 6.031875 -0.575 7.00125 -1 8 C-1.99 8.33 -2.98 8.66 -4 9 C-2.94124926 5.59687262 -1.99097846 2.98646769 0 0 Z " transform="translate(161,315)" style="fill: #49CCDD;"></path><path d="M0 0 C0.75 1.75 0.75 1.75 1 4 C-0.9375 6.25 -0.9375 6.25 -3 8 C-2.25 2.25 -2.25 2.25 0 0 Z " transform="translate(213,303)" style="fill: #34C1D5;"></path><path d="M0 0 C0 0.99 0 1.98 0 3 C-5.75 4.125 -5.75 4.125 -8 3 C-2.25 0 -2.25 0 0 0 Z " transform="translate(346,143)" style="fill: #38CCDE;"></path></svg>